{
	"asset":{
		"generator":"Khronos glTF Blender I/O v4.3.47",
		"version":"2.0"
	},
	"scene":0,
	"scenes":[
		{
			"name":"Scene",
			"nodes":[
				0
			]
		}
	],
	"nodes":[
		{
			"mesh":0,
			"name":"Sphere"
		}
	],
	"materials":[
		{
			"doubleSided":true,
			"name":"Material",
			"pbrMetallicRoughness":{
				"baseColorFactor":[
					0.8001260757446289,
					0.00025754704256542027,
					0.13336999714374542,
					1
				],
				"metallicFactor":0,
				"roughnessFactor":0.5
			}
		}
	],
	"meshes":[
		{
			"name":"Quad Sphere",
			"primitives":[
				{
					"attributes":{
						"POSITION":0,
						"NORMAL":1
					},
					"indices":2,
					"material":0
				}
			]
		}
	],
	"accessors":[
		{
			"bufferView":0,
			"componentType":5126,
			"count":98304,
			"max":[
				1.5167587995529175,
				1.284402847290039,
				1.3326290845870972
			],
			"min":[
				-1.284402847290039,
				-1.284402847290039,
				-1.284402847290039
			],
			"type":"VEC3"
		},
		{
			"bufferView":1,
			"componentType":5126,
			"count":98304,
			"type":"VEC3"
		},
		{
			"bufferView":2,
			"componentType":5125,
			"count":147456,
			"type":"SCALAR"
		}
	],
	"bufferViews":[
		{
			"buffer":0,
			"byteLength":1179648,
			"byteOffset":0,
			"target":34962
		},
		{
			"buffer":0,
			"byteLength":1179648,
			"byteOffset":1179648,
			"target":34962
		},
		{
			"buffer":0,
			"byteLength":589824,
			"byteOffset":2359296,
			"target":34963
		}
	],
	"buffers":[
		{
			"byteLength":2949120,
			"uri":"bomb.bin"
		}
	]
}
